<svg width="6198" height="1920" viewBox="0 0 6198 1920" fill="none" xmlns="http://www.w3.org/2000/svg">
<path d="M5575.43 767.451C5587.16 719.974 5588.28 664.399 5579.62 619.995C5569.29 566.375 5550.02 514.43 5529.63 470.305C5503.94 415.567 5474.33 362.785 5445.29 309.723C5444.73 393.226 5419.88 504.655 5323.81 619.995L5128.59 854.305C5128.59 854.305 5009.34 1001.2 5106.53 1114.03C5169.93 1187.48 5266 1182.45 5339.17 1135.25C5437.75 1072.42 5532.7 956.239 5582.97 819.954C5574.03 804.594 5570.96 785.604 5575.43 767.451Z" fill="url(#paint0_linear_531_69)"/>
<path d="M5339.15 101.943C5265.98 54.7457 5169.91 49.7187 5106.51 123.167C5009.05 235.994 5128.58 382.891 5128.58 382.891L5323.79 617.201C5519 851.51 5420.14 1070.18 5420.14 1070.18C5543.02 958.193 5620.38 796.773 5620.38 617.201C5620.38 401.044 5483.53 193.823 5339.15 101.943Z" fill="url(#paint1_linear_531_69)"/>
<path d="M6152.88 767.451C6164.61 719.974 6165.73 664.399 6157.07 619.995C6146.74 566.374 6127.47 514.43 6107.08 470.305C6081.39 415.567 6051.79 362.785 6022.74 309.723C6022.18 393.225 5997.33 504.655 5901.26 619.995L5706.05 854.304C5706.05 854.304 5586.8 1001.2 5683.98 1114.03C5747.38 1187.48 5843.45 1182.45 5916.62 1135.25C6015.2 1072.42 6110.15 956.239 6160.42 819.954C6151.49 804.594 6148.41 785.603 6152.88 767.451Z" fill="url(#paint2_linear_531_69)"/>
<path d="M5916.6 101.943C5843.43 54.7457 5747.36 49.7187 5683.97 123.167C5586.5 235.994 5706.03 382.891 5706.03 382.891L5901.24 617.201C6096.45 851.51 5997.59 1070.18 5997.59 1070.18C6120.47 958.193 6197.83 796.773 6197.83 617.201C6197.83 401.044 6060.98 193.823 5916.6 101.943Z" fill="url(#paint3_linear_531_69)"/>
<path d="M904.017 18.4302V1218.74H699.869V1092.51C638.429 1185.51 535.376 1236.9 411.1 1236.9C163.664 1236.9 1.12793 1039.45 1.12793 795.366C1.12793 551.282 155.566 360.26 412.776 360.26C525.602 360.26 628.654 405.223 699.869 502.968V18.1511H904.017V18.4302ZM454.108 1065.98C593.465 1065.98 703.22 971.308 703.22 805.42C703.22 639.532 600.168 531.454 447.406 531.454C294.644 531.454 206.673 652.658 206.673 797.042C206.673 941.426 301.346 1065.98 454.108 1065.98Z" fill="#171B40"/>
<path d="M1247.52 0C1325.44 0 1383.52 56.4131 1383.52 129.582C1383.52 202.752 1325.44 257.489 1247.52 257.489C1169.6 257.489 1114.58 202.752 1114.58 129.582C1114.58 56.4131 1169.32 0 1247.52 0ZM1144.47 1218.75V378.694H1348.61V1218.75H1144.47Z" fill="#171B40"/>
<path d="M1790.42 564.694C1816.95 421.986 1929.78 360.546 2019.43 360.546C2047.63 360.546 2064.39 365.573 2089.24 372.276V573.073C2057.69 561.343 2019.43 556.596 1992.89 556.596C1918.05 556.596 1793.77 598.207 1793.77 830.562V1219.03H1589.62V378.978H1790.42V564.973V564.694Z" fill="#171B40"/>
<path d="M3020.62 1076.04C2907.79 1202.27 2771.5 1237.18 2640.53 1237.18C2340.03 1237.18 2157.38 1041.41 2157.38 802.076C2157.38 562.739 2351.76 360.546 2617.35 360.546C2843 360.546 3058.88 503.254 3058.88 827.21H2361.53C2361.53 960.144 2471.01 1064.59 2650.3 1064.59C2756.42 1064.59 2832.95 1026.33 2904.44 961.541L3020.62 1076.04ZM2371.59 689.25H2849.7C2818.14 559.668 2705.32 523.362 2617.35 523.362C2529.38 523.362 2416.55 559.947 2371.59 689.25Z" fill="#171B40"/>
<path d="M3664.9 360.26C3746.17 360.26 3857.6 378.412 3988.57 473.086L3893.9 619.145C3807.61 547.651 3706.23 542.904 3674.67 542.904C3511.86 542.904 3397.35 647.631 3397.35 798.438C3397.35 949.245 3511.86 1054.25 3674.67 1054.25C3704.55 1054.25 3810.68 1047.55 3893.9 978.011L3988.57 1122.39C3857.32 1220.42 3746.17 1236.9 3664.9 1236.9C3372.78 1236.9 3191.81 1047.55 3191.81 803.465C3191.81 559.381 3367.75 360.26 3664.9 360.26Z" fill="#171B40"/>
<path d="M4395.49 378.688H4646.28V534.802H4395.49V974.657C4395.49 1026.04 4417 1065.98 4476.76 1065.98C4528.15 1065.98 4559.7 1031.07 4559.7 979.683C4559.7 961.531 4556.35 928.297 4547.97 909.865H4715.54C4730.62 941.423 4733.69 989.458 4733.69 1004.54C4733.69 1127.42 4649.07 1236.89 4468.1 1236.89C4328.75 1236.89 4190.78 1177.13 4190.78 946.45V534.802H4059.53V378.688H4200.56L4237.14 154.433H4394.93V378.688H4395.49Z" fill="#171B40"/>
<path d="M148.014 1806.9C111.988 1806.9 77.3578 1794.62 51.6647 1758.59V1801.04H0V1416.48H51.6647V1577.62C77.0786 1541.59 111.709 1529.31 148.014 1529.31C227.886 1529.31 279.831 1591.58 279.831 1668.11C279.831 1744.63 227.607 1806.9 148.014 1806.9ZM141.591 1761.1C196.887 1761.1 228.165 1718.65 228.165 1668.11C228.165 1617.56 196.887 1575.11 141.591 1575.11C86.2946 1575.11 50.5483 1614.48 50.5483 1668.11C50.5483 1721.73 88.808 1761.1 141.591 1761.1Z" fill="#465054"/>
<path d="M517.218 1534.88H577.262L413.887 1920H363.898L413.329 1791.82L301.062 1534.88H359.988L441.256 1733.17L516.66 1534.88H517.218Z" fill="#465054"/>
<path d="M871.886 1602.48C863.507 1578.46 846.751 1573.15 830.274 1573.15C806.257 1573.15 790.897 1587.95 790.897 1607.22C790.897 1624.82 806.257 1633.2 822.734 1639.06L860.994 1651.91C911.543 1667.27 924.948 1698.83 924.948 1727.03C924.948 1777.58 880.822 1806.9 829.157 1806.9C781.96 1806.9 739.231 1782.33 726.385 1737.37L772.186 1726.19C778.609 1747.42 802.627 1762.78 829.716 1762.78C856.805 1762.78 875.516 1747.42 875.516 1726.75C875.516 1708.04 860.715 1699.66 842.004 1693.24L806.257 1680.95C763.808 1668.11 740.907 1645.21 740.907 1608.62C740.907 1563.94 776.095 1529.31 828.599 1529.31C864.625 1529.31 903.723 1544.67 917.407 1592.7L871.607 1602.76L871.886 1602.48Z" fill="#465054"/>
<path d="M1165.11 1534.88H1225.16L1061.78 1920H1011.79L1061.22 1791.82L948.956 1534.88H1007.88L1089.15 1733.17L1164.55 1534.88H1165.11Z" fill="#465054"/>
<path d="M1462.55 1651.06C1462.55 1594.65 1436.57 1575.1 1408.37 1575.1C1380.16 1575.1 1322.63 1594.37 1322.63 1677.87V1801.31H1270.96V1535.44H1322.63V1588.51C1333.8 1550.25 1367.87 1529.58 1412 1529.58C1469.53 1529.58 1514.21 1565.61 1514.21 1651.34V1801.31H1462.55V1651.34V1651.06Z" fill="#465054"/>
<path d="M1695.47 1529.31C1731.49 1529.31 1766.12 1541.59 1791.82 1577.62V1416.48H1843.48V1801.04H1791.82V1758.59C1766.4 1794.62 1731.77 1806.9 1695.47 1806.9C1615.6 1806.9 1563.65 1744.63 1563.65 1668.11C1563.65 1591.58 1615.87 1529.31 1695.47 1529.31ZM1701.89 1575.11C1646.59 1575.11 1615.32 1617.56 1615.32 1668.11C1615.32 1718.65 1646.59 1761.1 1701.89 1761.1C1757.19 1761.1 1792.93 1721.73 1792.93 1668.11C1792.93 1614.48 1755.79 1575.11 1701.89 1575.11Z" fill="#465054"/>
<path d="M1938.7 1413.13C1959.37 1413.13 1974.73 1428.49 1974.73 1449.15C1974.73 1469.82 1959.37 1484.9 1938.7 1484.9C1918.03 1484.9 1902.95 1470.1 1902.95 1449.15C1902.95 1428.21 1917.75 1413.13 1938.7 1413.13ZM1964.67 1534.89H1913.01V1800.76H1964.67V1534.89Z" fill="#465054"/>
<path d="M2165.19 1529.31C2189.21 1529.31 2224.12 1534.61 2260.43 1561.7L2235.85 1596.89C2207.64 1575.67 2174.69 1575.11 2167.15 1575.11C2109.62 1575.11 2067.17 1613.37 2067.17 1668.11C2067.17 1722.84 2109.62 1761.1 2167.15 1761.1C2174.69 1761.1 2207.64 1760.55 2235.85 1739.32L2260.43 1774.51C2224.4 1801.6 2189.21 1806.9 2165.19 1806.9C2071.08 1806.9 2015.78 1746.3 2015.78 1671.18C2015.78 1596.05 2068.85 1529.31 2165.19 1529.31Z" fill="#465054"/>
<path d="M2425.48 1529.31C2461.51 1529.31 2496.14 1541.6 2521.83 1577.62V1535.17H2573.5V1801.04H2521.83V1758.59C2496.42 1794.62 2461.79 1806.9 2425.48 1806.9C2345.61 1806.9 2293.67 1744.63 2293.67 1668.11C2293.67 1591.59 2345.89 1529.31 2425.48 1529.31ZM2431.91 1575.11C2376.61 1575.11 2345.33 1617.56 2345.33 1668.11C2345.33 1718.65 2376.61 1761.1 2431.91 1761.1C2487.2 1761.1 2522.95 1721.73 2522.95 1668.11C2522.95 1614.49 2485.8 1575.11 2431.91 1575.11Z" fill="#465054"/>
<path d="M2703.65 1720.61C2703.65 1750.49 2717.89 1761.66 2735.48 1761.66C2751.96 1761.66 2767.88 1752.17 2767.88 1732.34C2767.88 1728.71 2767.32 1718.37 2763.69 1710.55H2808.93C2811.16 1716.42 2812.56 1722.84 2813.12 1728.71C2813.68 1732.34 2813.68 1735.69 2813.68 1739.32C2813.68 1777.58 2786.59 1806.9 2734.92 1806.9C2693.03 1806.9 2651.98 1785.12 2651.98 1716.98V1575.39H2608.41V1534.89H2651.98L2663.71 1458.37H2703.65V1534.89H2788.26V1575.39H2703.65V1720.61Z" fill="#465054"/>
<path d="M3108.3 1757.19C3074.23 1795.45 3031.78 1806.62 2991.84 1806.62C2899.41 1806.62 2841.88 1743.78 2841.88 1668.94C2841.88 1594.09 2901.92 1529.02 2984.86 1529.02C3054.96 1529.02 3120.59 1574.26 3120.59 1672.57H2893.54C2891.86 1723.67 2933.48 1760.82 2992.4 1760.82C3024.8 1760.82 3053.56 1749.65 3079.54 1727.3L3108.3 1757.19ZM2898.29 1632.63H3067.53C3053.28 1584.32 3015.3 1574.26 2986.26 1574.26C2955.54 1574.26 2915.6 1586.55 2898.57 1632.63H2898.29Z" fill="#465054"/>
<path d="M3468.01 1806.9C3431.98 1806.9 3397.35 1794.62 3371.66 1758.59V1801.04H3320V1416.48H3371.66V1577.62C3397.07 1541.59 3431.7 1529.31 3468.01 1529.31C3547.88 1529.31 3599.83 1591.58 3599.83 1668.11C3599.83 1744.63 3547.6 1806.9 3468.01 1806.9ZM3461.59 1761.1C3516.88 1761.1 3548.16 1718.65 3548.16 1668.11C3548.16 1617.56 3516.88 1575.11 3461.59 1575.11C3406.29 1575.11 3370.54 1614.48 3370.54 1668.11C3370.54 1721.73 3408.8 1761.1 3461.59 1761.1Z" fill="#465054"/>
<path d="M3690.02 1413.13C3710.68 1413.13 3726.04 1428.49 3726.04 1449.15C3726.04 1469.82 3710.68 1484.9 3690.02 1484.9C3669.35 1484.9 3654.27 1470.1 3654.27 1449.15C3654.27 1428.21 3669.07 1413.13 3690.02 1413.13ZM3715.99 1534.89H3664.32V1800.76H3715.99V1534.89Z" fill="#465054"/>
<path d="M3918.76 1529.31C3995.84 1529.31 4058.67 1591.59 4058.67 1668.11C4058.67 1744.63 3995.84 1806.9 3918.76 1806.9C3841.68 1806.9 3779.4 1745.19 3779.4 1668.11C3779.4 1591.03 3842.24 1529.31 3918.76 1529.31ZM3918.76 1761.1C3967.63 1761.1 4007.01 1719.49 4007.01 1668.66C4007.01 1617.84 3967.63 1575.11 3918.76 1575.11C3869.88 1575.11 3831.07 1617.56 3831.07 1668.66C3831.07 1719.77 3870.44 1761.1 3918.76 1761.1Z" fill="#465054"/>
<defs>
<linearGradient id="paint0_linear_531_69" x1="5326.88" y1="1170.16" x2="5326.88" y2="166.735" gradientUnits="userSpaceOnUse">
<stop stop-color="#FFAAF7"/>
<stop offset="1" stop-color="#00E2FF"/>
</linearGradient>
<linearGradient id="paint1_linear_531_69" x1="5344.17" y1="1070.18" x2="5344.17" y2="67.0336" gradientUnits="userSpaceOnUse">
<stop stop-color="#FFAAF7"/>
<stop offset="0.11" stop-color="#FEABF1"/>
<stop offset="0.25" stop-color="#FEAFE0"/>
<stop offset="0.4" stop-color="#FEB6C5"/>
<stop offset="0.58" stop-color="#FEBF9E"/>
<stop offset="0.76" stop-color="#FECB6D"/>
<stop offset="0.95" stop-color="#FED932"/>
<stop offset="1" stop-color="#FEDE22"/>
</linearGradient>
<linearGradient id="paint2_linear_531_69" x1="5904.33" y1="1170.16" x2="5904.33" y2="166.735" gradientUnits="userSpaceOnUse">
<stop stop-color="#FFAAF7"/>
<stop offset="1" stop-color="#00E2FF"/>
</linearGradient>
<linearGradient id="paint3_linear_531_69" x1="5921.63" y1="1070.18" x2="5921.63" y2="67.0336" gradientUnits="userSpaceOnUse">
<stop stop-color="#FFAAF7"/>
<stop offset="0.11" stop-color="#FEABF1"/>
<stop offset="0.25" stop-color="#FEAFE0"/>
<stop offset="0.4" stop-color="#FEB6C5"/>
<stop offset="0.58" stop-color="#FEBF9E"/>
<stop offset="0.76" stop-color="#FECB6D"/>
<stop offset="0.95" stop-color="#FED932"/>
<stop offset="1" stop-color="#FEDE22"/>
</linearGradient>
</defs>
</svg>
