<svg width="6206" height="1920" viewBox="0 0 6206 1920" fill="none" xmlns="http://www.w3.org/2000/svg">
<path d="M5575.43 767.449C5587.16 719.973 5588.28 664.398 5579.62 619.993C5569.29 566.373 5550.02 514.428 5529.63 470.303C5503.94 415.566 5474.33 362.783 5445.29 309.722C5444.73 393.224 5419.88 504.654 5323.81 619.993L5128.59 854.303C5128.59 854.303 5009.34 1001.2 5106.53 1114.03C5169.93 1187.48 5266 1182.45 5339.17 1135.25C5437.75 1072.42 5532.7 956.238 5582.97 819.953C5574.03 804.593 5570.96 785.602 5575.43 767.449Z" fill="url(#paint0_linear_531_70)"/>
<path d="M5339.15 101.941C5265.98 54.7443 5169.91 49.7172 5106.51 123.166C5009.05 235.992 5128.58 382.89 5128.58 382.89L5323.79 617.199C5519 851.509 5420.14 1070.18 5420.14 1070.18C5543.02 958.191 5620.38 796.771 5620.38 617.199C5620.38 401.042 5483.53 193.822 5339.15 101.941Z" fill="url(#paint1_linear_531_70)"/>
<path d="M6160.24 761.483C6171.97 714.006 6173.08 658.431 6164.43 614.027C6154.09 560.406 6134.82 508.462 6114.44 464.337C6088.74 409.599 6059.14 356.817 6030.1 303.755C6029.54 387.257 6004.68 498.687 5908.61 614.027L5713.4 848.336C5713.4 848.336 5594.15 995.234 5691.34 1108.06C5754.73 1181.51 5850.8 1176.48 5923.97 1129.28C6022.56 1066.45 6117.51 950.271 6167.78 813.986C6158.84 798.626 6155.77 779.635 6160.24 761.483Z" fill="url(#paint2_linear_531_70)"/>
<path d="M5923.95 95.9747C5850.78 48.7776 5754.71 43.7505 5691.32 117.199C5593.85 230.025 5713.38 376.923 5713.38 376.923L5908.59 611.233C6103.81 845.542 6004.94 1064.21 6004.94 1064.21C6127.82 952.224 6205.18 790.805 6205.18 611.233C6205.18 395.076 6068.34 187.855 5923.95 95.9747Z" fill="url(#paint3_linear_531_70)"/>
<path d="M904.011 18.4302V1218.74H699.863V1092.51C638.423 1185.51 535.37 1236.9 411.094 1236.9C163.659 1236.9 1.12207 1039.45 1.12207 795.366C1.12207 551.282 155.56 360.26 412.77 360.26C525.597 360.26 628.648 405.223 699.863 502.968V18.1511H904.011V18.4302ZM454.102 1065.98C593.459 1065.98 703.214 971.308 703.214 805.42C703.214 639.532 600.162 531.454 447.4 531.454C294.638 531.454 206.667 652.658 206.667 797.042C206.667 941.426 301.34 1065.98 454.102 1065.98Z" fill="white"/>
<path d="M1247.52 0C1325.44 0 1383.52 56.4131 1383.52 129.582C1383.52 202.752 1325.44 257.489 1247.52 257.489C1169.6 257.489 1114.58 202.752 1114.58 129.582C1114.58 56.4131 1169.32 0 1247.52 0ZM1144.47 1218.75V378.694H1348.61V1218.75H1144.47Z" fill="white"/>
<path d="M1790.42 564.694C1816.95 421.986 1929.77 360.546 2019.42 360.546C2047.63 360.546 2064.38 365.573 2089.24 372.276V573.073C2057.68 561.343 2019.42 556.596 1992.89 556.596C1918.04 556.596 1793.77 598.207 1793.77 830.562V1219.03H1589.62V378.978H1790.42V564.973V564.694Z" fill="white"/>
<path d="M3020.62 1076.04C2907.79 1202.27 2771.5 1237.18 2640.53 1237.18C2340.03 1237.18 2157.38 1041.41 2157.38 802.076C2157.38 562.739 2351.76 360.546 2617.35 360.546C2843 360.546 3058.88 503.254 3058.88 827.21H2361.53C2361.53 960.144 2471.01 1064.59 2650.3 1064.59C2756.42 1064.59 2832.95 1026.33 2904.44 961.541L3020.62 1076.04ZM2371.59 689.25H2849.7C2818.14 559.668 2705.32 523.362 2617.35 523.362C2529.38 523.362 2416.55 559.947 2371.59 689.25Z" fill="white"/>
<path d="M3664.9 360.26C3746.17 360.26 3857.6 378.412 3988.57 473.086L3893.9 619.145C3807.61 547.651 3706.23 542.904 3674.67 542.904C3511.86 542.904 3397.35 647.631 3397.35 798.438C3397.35 949.245 3511.86 1054.25 3674.67 1054.25C3704.55 1054.25 3810.68 1047.55 3893.9 978.011L3988.57 1122.39C3857.32 1220.42 3746.17 1236.9 3664.9 1236.9C3372.78 1236.9 3191.81 1047.55 3191.81 803.465C3191.81 559.381 3367.75 360.26 3664.9 360.26Z" fill="white"/>
<path d="M4395.49 378.688H4646.27V534.802H4395.49V974.657C4395.49 1026.04 4416.99 1065.98 4476.75 1065.98C4528.14 1065.98 4559.7 1031.07 4559.7 979.683C4559.7 961.531 4556.35 928.297 4547.97 909.865H4715.53C4730.61 941.423 4733.69 989.458 4733.69 1004.54C4733.69 1127.42 4649.07 1236.89 4468.1 1236.89C4328.74 1236.89 4190.78 1177.13 4190.78 946.45V534.802H4059.52V378.688H4200.55L4237.14 154.433H4394.93V378.688H4395.49Z" fill="white"/>
<path d="M148.014 1806.9C111.988 1806.9 77.3578 1794.62 51.6647 1758.59V1801.04H0V1416.48H51.6647V1577.62C77.0786 1541.59 111.709 1529.31 148.014 1529.31C227.886 1529.31 279.831 1591.58 279.831 1668.1C279.831 1744.63 227.607 1806.9 148.014 1806.9ZM141.591 1761.1C196.887 1761.1 228.165 1718.65 228.165 1668.1C228.165 1617.56 196.887 1575.11 141.591 1575.11C86.2946 1575.11 50.5483 1614.48 50.5483 1668.1C50.5483 1721.73 88.808 1761.1 141.591 1761.1Z" fill="#CCCCCC"/>
<path d="M517.218 1534.89H577.262L413.887 1920H363.898L413.329 1791.82L301.062 1534.89H359.988L441.256 1733.17L516.66 1534.89H517.218Z" fill="#CCCCCC"/>
<path d="M871.88 1602.48C863.502 1578.46 846.745 1573.15 830.268 1573.15C806.251 1573.15 790.891 1587.95 790.891 1607.22C790.891 1624.82 806.251 1633.2 822.728 1639.06L860.989 1651.91C911.537 1667.27 924.942 1698.83 924.942 1727.03C924.942 1777.58 880.816 1806.9 829.151 1806.9C781.954 1806.9 739.225 1782.33 726.379 1737.37L772.18 1726.19C778.603 1747.42 802.621 1762.78 829.71 1762.78C856.8 1762.78 875.51 1747.42 875.51 1726.75C875.51 1708.04 860.709 1699.66 841.998 1693.24L806.251 1680.95C763.802 1668.11 740.902 1645.21 740.902 1608.62C740.902 1563.94 776.09 1529.31 828.593 1529.31C864.619 1529.31 903.717 1544.67 917.401 1592.7L871.601 1602.76L871.88 1602.48Z" fill="#CCCCCC"/>
<path d="M1165.11 1534.89H1225.16L1061.78 1920H1011.79L1061.22 1791.82L948.956 1534.89H1007.88L1089.15 1733.17L1164.55 1534.89H1165.11Z" fill="#CCCCCC"/>
<path d="M1462.55 1651.06C1462.55 1594.65 1436.57 1575.1 1408.37 1575.1C1380.16 1575.1 1322.63 1594.37 1322.63 1677.87V1801.31H1270.96V1535.44H1322.63V1588.51C1333.8 1550.25 1367.87 1529.58 1412 1529.58C1469.53 1529.58 1514.21 1565.61 1514.21 1651.34V1801.31H1462.55V1651.34V1651.06Z" fill="#CCCCCC"/>
<path d="M1695.47 1529.31C1731.5 1529.31 1766.13 1541.59 1791.82 1577.62V1416.48H1843.49V1801.04H1791.82V1758.59C1766.41 1794.62 1731.78 1806.9 1695.47 1806.9C1615.6 1806.9 1563.66 1744.63 1563.66 1668.1C1563.66 1591.58 1615.88 1529.31 1695.47 1529.31ZM1701.9 1575.11C1646.6 1575.11 1615.32 1617.56 1615.32 1668.1C1615.32 1718.65 1646.6 1761.1 1701.9 1761.1C1757.19 1761.1 1792.94 1721.73 1792.94 1668.1C1792.94 1614.48 1755.8 1575.11 1701.9 1575.11Z" fill="#CCCCCC"/>
<path d="M1938.7 1413.13C1959.37 1413.13 1974.73 1428.49 1974.73 1449.15C1974.73 1469.82 1959.37 1484.9 1938.7 1484.9C1918.03 1484.9 1902.95 1470.1 1902.95 1449.15C1902.95 1428.21 1917.75 1413.13 1938.7 1413.13ZM1964.67 1534.89H1913.01V1800.76H1964.67V1534.89Z" fill="#CCCCCC"/>
<path d="M2165.19 1529.31C2189.21 1529.31 2224.12 1534.61 2260.43 1561.7L2235.85 1596.89C2207.64 1575.67 2174.69 1575.11 2167.15 1575.11C2109.62 1575.11 2067.17 1613.37 2067.17 1668.11C2067.17 1722.84 2109.62 1761.1 2167.15 1761.1C2174.69 1761.1 2207.64 1760.55 2235.85 1739.32L2260.43 1774.51C2224.4 1801.6 2189.21 1806.9 2165.19 1806.9C2071.08 1806.9 2015.78 1746.3 2015.78 1671.18C2015.78 1596.05 2068.85 1529.31 2165.19 1529.31Z" fill="#CCCCCC"/>
<path d="M2425.48 1529.31C2461.51 1529.31 2496.14 1541.6 2521.83 1577.62V1535.17H2573.5V1801.04H2521.83V1758.59C2496.42 1794.62 2461.79 1806.9 2425.48 1806.9C2345.61 1806.9 2293.67 1744.63 2293.67 1668.11C2293.67 1591.59 2345.89 1529.31 2425.48 1529.31ZM2431.91 1575.11C2376.61 1575.11 2345.33 1617.56 2345.33 1668.11C2345.33 1718.65 2376.61 1761.1 2431.91 1761.1C2487.2 1761.1 2522.95 1721.73 2522.95 1668.11C2522.95 1614.49 2485.8 1575.11 2431.91 1575.11Z" fill="#CCCCCC"/>
<path d="M2703.65 1720.61C2703.65 1750.49 2717.89 1761.66 2735.49 1761.66C2751.96 1761.66 2767.88 1752.17 2767.88 1732.34C2767.88 1728.71 2767.32 1718.37 2763.69 1710.55H2808.94C2811.17 1716.42 2812.57 1722.84 2813.13 1728.71C2813.68 1732.34 2813.68 1735.69 2813.68 1739.32C2813.68 1777.58 2786.59 1806.9 2734.93 1806.9C2693.04 1806.9 2651.99 1785.12 2651.99 1716.98V1575.39H2608.42V1534.89H2651.99L2663.71 1458.37H2703.65V1534.89H2788.27V1575.39H2703.65V1720.61Z" fill="#CCCCCC"/>
<path d="M3108.3 1757.19C3074.22 1795.45 3031.77 1806.62 2991.84 1806.62C2899.4 1806.62 2841.87 1743.78 2841.87 1668.94C2841.87 1594.09 2901.91 1529.02 2984.86 1529.02C3054.95 1529.02 3120.58 1574.26 3120.58 1672.57H2893.53C2891.86 1723.67 2933.47 1760.82 2992.4 1760.82C3024.79 1760.82 3053.56 1749.65 3079.53 1727.3L3108.3 1757.19ZM2898.28 1632.63H3067.52C3053.28 1584.32 3015.3 1574.26 2986.25 1574.26C2955.53 1574.26 2915.6 1586.55 2898.56 1632.63H2898.28Z" fill="#CCCCCC"/>
<path d="M3468 1806.9C3431.98 1806.9 3397.35 1794.62 3371.65 1758.59V1801.04H3319.99V1416.48H3371.65V1577.62C3397.07 1541.59 3431.7 1529.31 3468 1529.31C3547.88 1529.31 3599.82 1591.58 3599.82 1668.1C3599.82 1744.63 3547.6 1806.9 3468 1806.9ZM3461.58 1761.1C3516.88 1761.1 3548.16 1718.65 3548.16 1668.1C3548.16 1617.56 3516.88 1575.11 3461.58 1575.11C3406.28 1575.11 3370.54 1614.48 3370.54 1668.1C3370.54 1721.73 3408.8 1761.1 3461.58 1761.1Z" fill="#CCCCCC"/>
<path d="M3690.02 1413.13C3710.68 1413.13 3726.04 1428.49 3726.04 1449.15C3726.04 1469.82 3710.68 1484.9 3690.02 1484.9C3669.35 1484.9 3654.27 1470.1 3654.27 1449.15C3654.27 1428.21 3669.07 1413.13 3690.02 1413.13ZM3715.99 1534.89H3664.32V1800.76H3715.99V1534.89Z" fill="#CCCCCC"/>
<path d="M3918.76 1529.31C3995.84 1529.31 4058.67 1591.59 4058.67 1668.11C4058.67 1744.63 3995.84 1806.9 3918.76 1806.9C3841.68 1806.9 3779.4 1745.19 3779.4 1668.11C3779.4 1591.03 3842.24 1529.31 3918.76 1529.31ZM3918.76 1761.1C3967.63 1761.1 4007.01 1719.49 4007.01 1668.66C4007.01 1617.84 3967.63 1575.11 3918.76 1575.11C3869.88 1575.11 3831.07 1617.56 3831.07 1668.66C3831.07 1719.77 3870.44 1761.1 3918.76 1761.1Z" fill="#CCCCCC"/>
<defs>
<linearGradient id="paint0_linear_531_70" x1="5326.88" y1="1170.16" x2="5326.88" y2="166.734" gradientUnits="userSpaceOnUse">
<stop stop-color="#FFAAF7"/>
<stop offset="1" stop-color="#00E2FF"/>
</linearGradient>
<linearGradient id="paint1_linear_531_70" x1="5344.17" y1="1070.18" x2="5344.17" y2="67.0322" gradientUnits="userSpaceOnUse">
<stop stop-color="#FFAAF7"/>
<stop offset="0.11" stop-color="#FEABF1"/>
<stop offset="0.25" stop-color="#FEAFE0"/>
<stop offset="0.4" stop-color="#FEB6C5"/>
<stop offset="0.58" stop-color="#FEBF9E"/>
<stop offset="0.76" stop-color="#FECB6D"/>
<stop offset="0.95" stop-color="#FED932"/>
<stop offset="1" stop-color="#FEDE22"/>
</linearGradient>
<linearGradient id="paint2_linear_531_70" x1="5911.68" y1="1164.19" x2="5911.68" y2="160.767" gradientUnits="userSpaceOnUse">
<stop stop-color="#FFAAF7"/>
<stop offset="1" stop-color="#00E2FF"/>
</linearGradient>
<linearGradient id="paint3_linear_531_70" x1="5928.98" y1="1064.21" x2="5928.98" y2="61.0655" gradientUnits="userSpaceOnUse">
<stop stop-color="#FFAAF7"/>
<stop offset="0.11" stop-color="#FEABF1"/>
<stop offset="0.25" stop-color="#FEAFE0"/>
<stop offset="0.4" stop-color="#FEB6C5"/>
<stop offset="0.58" stop-color="#FEBF9E"/>
<stop offset="0.76" stop-color="#FECB6D"/>
<stop offset="0.95" stop-color="#FED932"/>
<stop offset="1" stop-color="#FEDE22"/>
</linearGradient>
</defs>
</svg>
